<svg enable-background="new 0 0 430 430" viewBox="0 0 430 430" xmlns="http://www.w3.org/2000/svg"><g fill="#08a88a"><path d="m215 307.01c-50.73 0-92.01-41.27-92.01-92.01s41.27-92.01 92.01-92.01 92.01 41.27 92.01 92.01-41.28 92.01-92.01 92.01zm0-172.02c-44.12 0-80.01 35.89-80.01 80.01s35.89 80.01 80.01 80.01 80.01-35.89 80.01-80.01-35.89-80.01-80.01-80.01z"/><path d="m215 99.37c-3.31 0-6-2.69-6-6v-38.49c0-3.31 2.69-6 6-6s6 2.69 6 6v38.49c0 3.31-2.69 6-6 6z"/><path d="m128.99 134.99c-1.54 0-3.07-.59-4.24-1.76l-46.08-46.08c-2.34-2.34-2.34-6.14 0-8.49 2.34-2.34 6.14-2.34 8.49 0l46.08 46.08c2.34 2.34 2.34 6.14 0 8.49-1.18 1.18-2.71 1.76-4.25 1.76z"/><path d="m93.37 221h-38.49c-3.31 0-6-2.69-6-6s2.69-6 6-6h38.49c3.31 0 6 2.69 6 6s-2.69 6-6 6z"/><path d="m82.92 353.08c-1.54 0-3.07-.59-4.24-1.76-2.34-2.34-2.34-6.14 0-8.49l46.08-46.08c2.34-2.34 6.14-2.34 8.49 0 2.34 2.34 2.34 6.14 0 8.49l-46.08 46.08c-1.18 1.18-2.72 1.76-4.25 1.76z"/><path d="m215 381.12c-3.31 0-6-2.69-6-6v-38.49c0-3.31 2.69-6 6-6s6 2.69 6 6v38.49c0 3.31-2.69 6-6 6z"/><path d="m347.09 353.09c-1.54 0-3.07-.59-4.24-1.76l-46.08-46.08c-2.34-2.34-2.34-6.14 0-8.49 2.34-2.34 6.14-2.34 8.49 0l46.08 46.08c2.34 2.34 2.34 6.14 0 8.49-1.18 1.18-2.71 1.76-4.25 1.76z"/><path d="m375.12 221h-38.49c-3.31 0-6-2.69-6-6s2.69-6 6-6h38.49c3.31 0 6 2.69 6 6s-2.69 6-6 6z"/><path d="m301.01 134.99c-1.54 0-3.07-.59-4.24-1.76-2.34-2.34-2.34-6.14 0-8.49l46.08-46.08c2.34-2.34 6.14-2.34 8.49 0 2.34 2.34 2.34 6.14 0 8.49l-46.08 46.08c-1.18 1.18-2.72 1.76-4.25 1.76z"/></g></svg>