<svg enable-background="new 0 0 500 500" viewBox="0 0 500 500" xmlns="http://www.w3.org/2000/svg"><path d="m237.36 416.33c-84.63 0-153.48-68.85-153.48-153.47 0-84.63 68.85-153.48 153.48-153.48 18.88 0 37.33 3.39 54.82 10.07 2.32.89 3.86 3.12 3.86 5.6 0 2.49-1.53 4.72-3.86 5.6-54.4 20.81-90.95 73.93-90.95 132.19s36.55 111.38 90.95 132.19c2.32.89 3.86 3.12 3.86 5.6 0 2.49-1.54 4.72-3.86 5.6-17.5 6.71-35.94 10.1-54.82 10.1zm0-294.94c-78.01 0-141.48 63.47-141.48 141.48s63.47 141.47 141.48 141.47c12.21 0 24.22-1.54 35.86-4.58-22.42-11.37-41.68-28.07-56.29-48.92-18.12-25.86-27.7-56.28-27.7-87.97s9.58-62.11 27.7-87.98c14.61-20.86 33.88-37.55 56.29-48.92-11.64-3.05-23.65-4.58-35.86-4.58z" fill="#121331"/><g fill="#08a88a"><path d="m297.34 281.98c-2.3 0-4.4-1.31-5.4-3.38l-14.52-29.93-29.9-13.58c-2.14-.97-3.52-3.11-3.52-5.46s1.38-4.49 3.52-5.46l29.9-13.58 14.52-29.93c1-2.07 3.1-3.38 5.4-3.38s4.4 1.31 5.4 3.38l14.52 29.93 29.9 13.58c2.14.97 3.52 3.11 3.52 5.46s-1.38 4.49-3.52 5.46l-29.9 13.58-14.52 29.93c-1.01 2.07-3.11 3.38-5.4 3.38zm-32.83-52.35 19.84 9.01c1.28.58 2.31 1.58 2.92 2.84l10.06 20.75 10.06-20.75c.61-1.26 1.64-2.27 2.92-2.84l19.84-9.01-19.84-9.01c-1.28-.58-2.31-1.59-2.92-2.84l-10.06-20.75-10.06 20.75c-.61 1.26-1.64 2.27-2.92 2.84z"/><path d="m349.75 388.69c-2.3 0-4.4-1.31-5.4-3.38l-10.05-20.73-20.71-9.4c-2.14-.97-3.52-3.11-3.52-5.46s1.38-4.49 3.52-5.46l20.71-9.4 10.05-20.73c1-2.07 3.1-3.38 5.4-3.38s4.4 1.31 5.4 3.38l10.06 20.73 20.71 9.4c2.14.97 3.52 3.11 3.52 5.46s-1.38 4.49-3.52 5.46l-20.71 9.4-10.06 20.73c-1 2.07-3.1 3.38-5.4 3.38zm-19.17-38.97 10.65 4.84c1.28.58 2.31 1.58 2.92 2.84l5.6 11.55 5.6-11.55c.61-1.26 1.64-2.27 2.92-2.84l10.65-4.84-10.65-4.84c-1.28-.58-2.31-1.58-2.92-2.84l-5.6-11.55-5.6 11.55c-.61 1.26-1.64 2.27-2.92 2.84z"/><path d="m389.43 161.87c-2.3 0-4.4-1.31-5.4-3.38l-10.05-20.73-20.71-9.4c-2.14-.97-3.52-3.11-3.52-5.46s1.38-4.49 3.52-5.46l20.71-9.4 10.05-20.73c1-2.07 3.1-3.38 5.4-3.38s4.4 1.31 5.4 3.38l10.05 20.73 20.71 9.4c2.14.97 3.52 3.11 3.52 5.46s-1.38 4.49-3.52 5.46l-20.71 9.4-10.05 20.73c-1 2.06-3.1 3.38-5.4 3.38zm-19.17-38.98 10.65 4.84c1.28.58 2.31 1.58 2.92 2.84l5.6 11.55 5.6-11.55c.61-1.26 1.64-2.27 2.92-2.84l10.65-4.84-10.65-4.84c-1.28-.58-2.31-1.58-2.92-2.84l-5.6-11.55-5.6 11.55c-.61 1.26-1.64 2.27-2.92 2.84z"/></g></svg>