<svg enable-background="new 0 0 430 430" viewBox="0 0 430 430" xmlns="http://www.w3.org/2000/svg"><g fill="#08a88a"><path d="m286.41 296.25c-2.35 0-4.58-1.39-5.54-3.7-1.27-3.06.17-6.57 3.23-7.84 26.16-10.89 43.07-36.24 43.07-64.58 0-38.56-31.37-69.93-69.93-69.93-26.17 0-49.94 14.42-62.03 37.63-1.53 2.94-5.16 4.08-8.09 2.55-2.94-1.53-4.08-5.15-2.55-8.09 14.16-27.19 42.01-44.09 72.67-44.09 45.18 0 81.93 36.75 81.93 81.93 0 33.2-19.8 62.9-50.45 75.66-.76.31-1.54.46-2.31.46z"/><path d="m257.24 118.88c-3.31 0-6-2.69-6-6v-33.93c0-3.31 2.69-6 6-6s6 2.69 6 6v33.94c0 3.3-2.69 5.99-6 5.99z"/><path d="m181.4 150.29c-1.54 0-3.07-.59-4.24-1.76l-24-24c-2.34-2.34-2.34-6.14 0-8.49 2.34-2.34 6.14-2.34 8.49 0l24 24c2.34 2.34 2.34 6.14 0 8.49-1.17 1.18-2.71 1.76-4.25 1.76z"/><path d="m357.07 325.96c-1.54 0-3.07-.59-4.24-1.76l-24-24c-2.34-2.34-2.34-6.14 0-8.49 2.34-2.34 6.14-2.34 8.49 0l24 24c2.34 2.34 2.34 6.14 0 8.49-1.17 1.18-2.71 1.76-4.25 1.76z"/><path d="m398.43 226.13h-33.94c-3.31 0-6-2.69-6-6s2.69-6 6-6h33.94c3.31 0 6 2.69 6 6s-2.69 6-6 6z"/><path d="m333.08 150.29c-1.54 0-3.07-.59-4.24-1.76-2.34-2.34-2.34-6.14 0-8.49l24-24c2.34-2.34 6.14-2.34 8.49 0 2.34 2.34 2.34 6.14 0 8.49l-24 24c-1.18 1.18-2.72 1.76-4.25 1.76z"/></g><path d="m251.73 229.11c-15.8-32.35-48.89-53.12-85-53.12-32.47 0-62.89 16.98-80.39 44.56-8.86-.8-17.79 2.19-24.58 8.41-7.14 6.53-11.03 15.69-10.84 25.11-15.73 10.32-25.35 27.95-25.35 46.91 0 30.92 25.16 56.08 56.08 56.08h144.17c36.72 0 66.59-29.87 66.59-66.59 0-26.68-16.25-51.03-40.68-61.36zm-25.91 115.94h-144.17c-24.3 0-44.08-19.77-44.08-44.08 0-15.94 8.64-30.68 22.56-38.47 2.17-1.22 3.36-3.65 3-6.11-1.01-6.86 1.51-13.81 6.73-18.59 5.07-4.64 11.67-6.41 18.13-4.88 6.13 1.46 11.5 5.37 14.72 10.74 2.82 4.69 3.65 10.06 2.33 15.12-.83 3.21 1.09 6.48 4.3 7.32s6.48-1.09 7.32-4.3c2.14-8.21.84-16.85-3.66-24.32-3.47-5.78-8.59-10.43-14.58-13.43 15.55-22.41 41.12-36.07 68.31-36.07 32.24 0 61.74 18.96 75.14 48.31 6.9 15.1 9.07 32.49 6.12 48.95-.59 3.26 1.58 6.38 4.85 6.97.36.06.72.1 1.07.1 2.85 0 5.38-2.04 5.9-4.94 2.43-13.53 1.81-27.6-1.64-40.86 13.7 10.14 22.25 26.44 22.25 43.96-.01 30.09-24.5 54.58-54.6 54.58z" fill="#121331"/></svg>