<svg enable-background="new 0 0 430 430" viewBox="0 0 430 430" xmlns="http://www.w3.org/2000/svg"><g fill="#121331" transform="matrix(3.5 0 0 3.5 250 247.375)"><path d="m15.8 26.13h-56.27c-11.76 0-21.33-9.57-21.33-21.33 0-7.51 3.92-14.39 10.31-18.25-.05-.45-.08-.89-.08-1.33 0-6.73 5.48-12.21 12.21-12.21.79 0 1.57.08 2.35.23 6.3-11.05 17.95-17.85 30.73-17.85 13.96 0 26.54 8.16 32.26 20.84 4.51 1.92 8.37 5.06 11.19 9.11 3.03 4.36 4.63 9.48 4.63 14.8 0 14.33-11.66 25.99-26 25.99zm-55.15-49.63c-4.8 0-8.71 3.91-8.71 8.71 0 .61.07 1.25.21 1.88.17.77-.2 1.56-.89 1.92-5.89 3.1-9.54 9.15-9.54 15.78 0 9.83 8 17.83 17.83 17.83h56.25c12.4 0 22.49-10.09 22.49-22.49 0-9.31-5.6-17.53-14.27-20.94-.44-.17-.79-.51-.97-.94-5.02-11.77-16.53-19.38-29.33-19.38-11.93 0-22.78 6.59-28.29 17.2-.39.76-1.28 1.12-2.09.86-.88-.29-1.78-.43-2.69-.43z"/><path d="m26.15.41c-.16 0-.32-.02-.48-.07-.93-.26-1.47-1.23-1.21-2.16 1.14-4.04 1.15-7.4 1.15-7.43 0-4.42-.89-8.7-2.64-12.72-.39-.89.02-1.92.91-2.3.89-.39 1.92.02 2.3.91 1.94 4.46 2.93 9.21 2.93 14.11 0 .15 0 3.84-1.29 8.39-.21.77-.91 1.27-1.67 1.27zm-55.65-16.98c-.72 0-1.39-.44-1.65-1.16-1.25-3.45-4.54-5.77-8.2-5.77-.97 0-1.75-.78-1.75-1.75s.79-1.75 1.75-1.75c5.13 0 9.75 3.25 11.5 8.09.33.91-.14 1.91-1.05 2.24-.2.07-.4.1-.6.1z"/></g></svg>