<svg enable-background="new 0 0 430 430" viewBox="0 0 430 430" xmlns="http://www.w3.org/2000/svg"><path d="m382.44 175.07c.01-.17.02-.34.03-.51 0 0 .03-1.14.03-1.7 0-28.81-23.44-52.25-52.25-52.25-.36 0-.74.01-1.12.02-17.27-15.24-39.35-23.62-62.48-23.62-36.11 0-69.2 20.77-85 53.13-2.55 1.08-5.04 2.32-7.42 3.7-2.86 1.67-3.83 5.34-2.17 8.2 1.11 1.91 3.12 2.98 5.19 2.98.77 0 1.56-.15 2.3-.46.59.58 1.3 1.06 2.13 1.36.69.26 1.4.38 2.1.38 2.43 0 4.72-1.49 5.62-3.9.61-1.65 1.32-3.36 2.11-5.07 13.4-29.35 42.9-48.31 75.14-48.31 16.81 0 32.99 5.07 46.64 14.44-20.58 7.1-35.3 26.73-35.3 49.41 0 7.17 1.43 14.13 4.25 20.67.98 2.27 3.19 3.63 5.51 3.63.79 0 1.6-.16 2.37-.49 3.04-1.31 4.45-4.84 3.13-7.89-2.17-5.03-3.27-10.38-3.27-15.91 0-21.03 16.42-38.67 37.34-40.15 1.01-.07 1.99-.1 2.91-.1 22.19 0 40.25 18.06 40.25 40.25 0 .44-.03 1.33-.03 1.34-.04 1.13-.11 2.19-.23 3.22-.01.04 0 .08-.01.12-.03.24-.05.47-.05.71 0 .1.01.2.01.3.01.17.02.34.04.51.01.1.02.2.04.3.04.22.1.44.16.66.03.11.07.21.11.32.06.16.13.32.2.48.06.13.13.26.2.39.08.15.17.29.26.43.06.1.13.19.2.28.14.18.28.35.44.52.08.08.16.15.24.23.12.11.24.21.36.31.09.07.18.14.27.21.17.12.35.24.54.34 13.92 7.79 22.56 22.54 22.56 38.48 0 24.3-19.77 44.07-44.08 44.07h-68.97c-3.31 0-6 2.69-6 6s2.69 6 6 6h68.97c30.92 0 56.08-25.15 56.08-56.07.02-19.01-9.61-36.65-25.35-46.96z" fill="#08a88a"/><path d="m248.35 205.05c-15.8-32.35-48.89-53.12-85-53.12-32.47 0-62.89 16.97-80.39 44.56-8.86-.8-17.79 2.19-24.58 8.41-7.14 6.53-11.03 15.69-10.84 25.11-15.73 10.32-25.35 27.95-25.35 46.91 0 30.92 25.16 56.08 56.08 56.08h144.17c36.72 0 66.59-29.87 66.59-66.59 0-26.68-16.25-51.03-40.68-61.36zm-25.91 115.94h-144.17c-24.3 0-44.08-19.77-44.08-44.08 0-15.94 8.64-30.68 22.56-38.48 2.17-1.22 3.36-3.64 3-6.11-1.01-6.86 1.51-13.81 6.73-18.59 5.06-4.64 11.67-6.41 18.13-4.88 6.13 1.46 11.5 5.38 14.72 10.74 2.82 4.69 3.64 10.06 2.33 15.12-.83 3.21 1.09 6.48 4.3 7.32s6.48-1.09 7.32-4.3c2.14-8.21.84-16.85-3.66-24.32-3.47-5.78-8.59-10.43-14.58-13.43 15.55-22.41 41.12-36.07 68.31-36.07 32.24 0 61.74 18.96 75.14 48.31 6.9 15.1 9.07 32.49 6.12 48.95-.59 3.26 1.58 6.38 4.85 6.97.36.06.72.1 1.07.1 2.85 0 5.38-2.04 5.9-4.94 2.43-13.53 1.81-27.6-1.64-40.86 13.7 10.14 22.25 26.44 22.25 43.96-.01 30.1-24.5 54.59-54.6 54.59z" fill="#121331"/></svg>