<svg enable-background="new 0 0 430 430" viewBox="0 0 430 430" xmlns="http://www.w3.org/2000/svg"><g fill="#08a88a"><path d="m170.72 405.5c-14.91 0-27.03-12.13-27.03-27.04 0-12.66 18.25-43.35 21.91-49.37 1.09-1.79 3.03-2.89 5.13-2.89s4.04 1.09 5.13 2.89c3.66 6.02 21.91 36.72 21.91 49.37-.01 14.91-12.14 27.04-27.05 27.04zm0-61.38c-7.36 13.11-15.03 28.82-15.03 34.35 0 8.29 6.74 15.04 15.03 15.04s15.04-6.74 15.04-15.04c0-5.53-7.67-21.24-15.04-34.35z"/><path d="m257.9 367.72c-11.94 0-21.65-9.71-21.65-21.65 0-9.58 12.65-31.15 16.52-37.53 1.09-1.79 3.03-2.89 5.13-2.89 2.1 0 4.04 1.09 5.13 2.89 3.88 6.38 16.52 27.95 16.52 37.53 0 11.94-9.72 21.65-21.65 21.65zm-.01-44.04c-5.23 9.55-9.65 19.14-9.65 22.39 0 5.32 4.33 9.65 9.65 9.65s9.65-4.33 9.65-9.65c.01-3.16-4.4-12.79-9.65-22.39z"/><path d="m83.55 367.72c-11.94 0-21.65-9.71-21.65-21.65 0-9.58 12.64-31.15 16.52-37.53 1.09-1.79 3.03-2.89 5.13-2.89s4.04 1.09 5.13 2.89c3.88 6.38 16.52 27.95 16.52 37.53 0 11.94-9.71 21.65-21.65 21.65zm0-44.05c-5.23 9.55-9.65 19.14-9.65 22.4 0 5.32 4.33 9.65 9.65 9.65s9.65-4.33 9.65-9.65c0-3.26-4.41-12.85-9.65-22.4z"/><path d="m311.26 234.21c-1.65 0-3.28-.67-4.47-1.99-2.21-2.47-2.01-6.26.46-8.47 14.77-13.25 23.25-32.22 23.25-52.05 0-38.56-31.37-69.93-69.93-69.93-10.65 0-20.86 2.32-30.35 6.9-2.98 1.44-6.57.19-8.01-2.8-1.44-2.98-.19-6.57 2.8-8.01 11.14-5.37 23.1-8.1 35.57-8.1 45.18 0 81.93 36.75 81.93 81.93 0 23.24-9.93 45.47-27.23 60.99-1.17 1.02-2.6 1.53-4.02 1.53z"/><path d="m260.56 70.44c-3.31 0-6-2.69-6-6v-33.94c0-3.31 2.69-6 6-6s6 2.69 6 6v33.94c0 3.31-2.68 6-6 6z"/><path d="m179.62 96.75c-1.54 0-3.07-.59-4.24-1.76l-18.9-18.89c-2.34-2.34-2.34-6.14 0-8.49 2.34-2.34 6.14-2.34 8.49 0l18.9 18.89c2.34 2.34 2.34 6.14 0 8.49-1.17 1.17-2.71 1.76-4.25 1.76z"/><path d="m360.4 277.52c-1.54 0-3.07-.59-4.24-1.76l-24-24c-2.34-2.34-2.34-6.14 0-8.49 2.34-2.34 6.14-2.34 8.49 0l24 24c2.34 2.34 2.34 6.14 0 8.49-1.18 1.18-2.72 1.76-4.25 1.76z"/><path d="m401.75 177.69h-33.94c-3.31 0-6-2.69-6-6s2.69-6 6-6h33.94c3.31 0 6 2.69 6 6s-2.69 6-6 6z"/><path d="m336.4 101.85c-1.54 0-3.07-.59-4.24-1.76-2.34-2.34-2.34-6.14 0-8.49l24-24c2.34-2.34 6.14-2.34 8.49 0 2.34 2.34 2.34 6.14 0 8.49l-24 24c-1.18 1.17-2.72 1.76-4.25 1.76z"/></g><path d="m273.9 144c-17.5-36.06-54.32-59.24-94.52-59.24-36.2 0-70.12 19-89.52 49.85-9.84-1.02-19.82 2.27-27.37 9.19-7.93 7.26-12.21 17.46-11.88 27.93-17.58 11.37-28.35 30.98-28.35 52.08 0 34.18 27.81 61.99 61.99 61.99h161.2c40.67 0 73.75-33.08 73.75-73.75 0-29.64-18.11-56.67-45.3-68.05zm-28.45 129.79h-161.21c-27.57 0-49.99-22.43-49.99-49.99 0-18.07 9.8-34.8 25.58-43.64 2.17-1.22 3.36-3.65 3-6.11-1.16-7.9 1.74-15.91 7.75-21.41 5.84-5.35 13.46-7.39 20.91-5.62 7.04 1.68 13.2 6.17 16.9 12.33 3.25 5.41 4.2 11.6 2.68 17.45-.83 3.21 1.09 6.48 4.3 7.32 3.21.83 6.48-1.09 7.32-4.3 2.34-8.99.91-18.46-4.01-26.65-3.95-6.58-9.84-11.83-16.75-15.11 17.47-25.64 46.52-41.31 77.43-41.31 36.33 0 69.56 21.37 84.66 54.43 7.78 17.02 10.22 36.61 6.9 55.15-.59 3.26 1.58 6.38 4.85 6.97.36.06.71.1 1.07.1 2.85 0 5.38-2.04 5.9-4.94 2.81-15.67 1.97-31.99-2.32-47.28 16.43 11.37 26.77 30.37 26.77 50.86.01 34.05-27.69 61.75-61.74 61.75z" fill="#121331"/></svg>