<svg enable-background="new 0 0 430 430" viewBox="0 0 430 430" xmlns="http://www.w3.org/2000/svg"><g fill="#08a88a"><path d="m176.52 401.27c-14.91 0-27.04-12.13-27.04-27.03 0-12.66 18.25-43.35 21.91-49.37 1.09-1.79 3.03-2.89 5.13-2.89 2.1 0 4.04 1.09 5.13 2.89 3.66 6.02 21.91 36.72 21.91 49.37-.01 14.91-12.14 27.03-27.04 27.03zm0-61.38c-7.36 13.11-15.04 28.82-15.04 34.35 0 8.29 6.75 15.03 15.04 15.03s15.03-6.74 15.03-15.03c0-5.52-7.67-21.24-15.03-34.35z"/><path d="m263.69 363.5c-11.94 0-21.65-9.71-21.65-21.65 0-9.58 12.64-31.15 16.52-37.53 1.09-1.79 3.03-2.89 5.13-2.89s4.04 1.09 5.13 2.89c3.88 6.38 16.52 27.95 16.52 37.53 0 11.93-9.71 21.65-21.65 21.65zm0-44.05c-5.23 9.55-9.64 19.14-9.64 22.39 0 5.32 4.33 9.65 9.65 9.65s9.65-4.33 9.65-9.65c-.01-3.16-4.42-12.79-9.66-22.39z"/><path d="m89.34 363.5c-11.94 0-21.65-9.71-21.65-21.65 0-9.58 12.64-31.15 16.52-37.53 1.09-1.79 3.03-2.89 5.13-2.89s4.04 1.09 5.13 2.89c3.88 6.38 16.52 27.95 16.52 37.53 0 11.93-9.71 21.65-21.65 21.65zm0-44.05c-5.23 9.55-9.65 19.14-9.65 22.39 0 5.32 4.33 9.65 9.65 9.65s9.65-4.33 9.65-9.65c0-3.16-4.41-12.79-9.65-22.39z"/><path d="m318.98 213.61c-3.28 0-5.96-2.64-6-5.92-.04-3.31 2.61-6.03 5.92-6.08 16.78-.21 32.92-5.49 46.66-15.26 6.7-4.76 12.53-10.36 17.44-16.71-34.63 5.04-69.61-9.51-90.42-38.77-17.84-25.1-22.23-56.55-12.53-85.03-3.49 1.8-6.85 3.85-10.08 6.15-16.15 11.49-27.62 28.41-32.3 47.63-.78 3.22-4.02 5.19-7.25 4.41-3.22-.78-5.19-4.03-4.41-7.25 5.36-22.02 18.5-41.4 37-54.57 8.15-5.8 17.09-10.25 26.56-13.21 2.32-.73 4.85.02 6.4 1.89s1.83 4.49.69 6.64c-14.65 27.73-12.47 60.83 5.7 86.38 20.76 29.18 57.66 41.6 91.8 30.91 2.32-.73 4.85.02 6.4 1.89 1.56 1.87 1.83 4.49.69 6.64-6.92 13.11-16.59 24.14-28.74 32.78-15.74 11.19-34.23 17.24-53.46 17.48-.01 0-.04 0-.07 0z"/></g><path d="m279.69 139.77c-17.5-36.06-54.32-59.24-94.52-59.24-36.2 0-70.12 19-89.51 49.85-9.84-1.01-19.82 2.27-27.37 9.19-7.93 7.26-12.21 17.46-11.88 27.93-17.58 11.37-28.35 30.98-28.35 52.08 0 34.18 27.81 61.99 61.99 61.99h161.2c40.67 0 73.75-33.08 73.75-73.75-.01-29.63-18.12-56.67-45.31-68.05zm-28.45 129.8h-161.2c-27.57 0-49.99-22.43-49.99-49.99 0-18.07 9.8-34.8 25.58-43.64 2.17-1.22 3.36-3.64 3-6.11-1.16-7.9 1.74-15.91 7.75-21.41 5.84-5.35 13.46-7.39 20.91-5.62 7.04 1.68 13.2 6.17 16.9 12.33 3.25 5.41 4.2 11.6 2.68 17.45-.83 3.21 1.09 6.48 4.3 7.32 3.2.84 6.48-1.09 7.32-4.3 2.34-8.99.91-18.46-4.01-26.65-3.95-6.58-9.84-11.83-16.75-15.11 17.47-25.64 46.52-41.31 77.43-41.31 36.33 0 69.56 21.37 84.66 54.43 7.78 17.02 10.22 36.61 6.9 55.15-.59 3.26 1.58 6.38 4.84 6.97.36.06.72.1 1.07.1 2.85 0 5.38-2.04 5.9-4.94 2.81-15.67 1.97-31.99-2.32-47.28 16.43 11.37 26.77 30.37 26.77 50.86.01 34.05-27.69 61.75-61.74 61.75z" fill="#121331"/></svg>