<svg enable-background="new 0 0 430 430" viewBox="0 0 430 430" xmlns="http://www.w3.org/2000/svg"><path d="m330.41 112.71c-19.49-40.42-60.7-66.41-105.68-66.41-40.58 0-78.6 21.38-100.23 56.07-11-1.27-22.19 2.35-30.64 10.09-8.86 8.1-13.59 19.54-13.11 31.23-19.75 12.61-31.87 34.53-31.87 58.14 0 38 30.92 68.92 68.92 68.92h54.52c3.31 0 6-2.69 6-6s-2.69-6-6-6h-54.52c-31.39 0-56.92-25.53-56.92-56.92 0-20.59 11.16-39.63 29.12-49.7 2.17-1.22 3.37-3.65 3-6.11-1.34-9.12 2-18.36 8.95-24.72 6.75-6.18 15.56-8.55 24.18-6.5h.01c.03.01.05.01.08.02 8.07 1.95 15.13 7.11 19.37 14.17 3.76 6.25 4.86 13.42 3.1 20.19-.83 3.21 1.09 6.48 4.3 7.32 3.21.83 6.48-1.09 7.32-4.3 2.58-9.91 1-20.35-4.43-29.39-4.52-7.52-11.33-13.47-19.3-17.06 19.72-29.45 52.86-47.47 88.14-47.47 41.12 0 78.73 24.18 95.83 61.61 8.8 19.26 11.57 41.43 7.8 62.42-.59 3.26 1.58 6.38 4.84 6.97.36.06.72.1 1.07.1 2.85 0 5.38-2.04 5.9-4.94 3.26-18.17 2.1-37.14-3.18-54.77 19.65 12.76 32.13 34.95 32.13 58.93 0 38.68-31.46 70.14-70.14 70.14h-45.62c-3.31 0-6 2.69-6 6s2.69 6 6 6h45.62c45.29 0 82.14-36.85 82.14-82.14.01-33.08-20.28-63.27-50.7-75.89z" fill="#121331"/><path d="m199.32 383.7c-.43 0-.87-.05-1.31-.14-2.73-.61-4.67-3.02-4.69-5.81l-.61-89.06-28.94.01c-2.06 0-3.98-1.06-5.08-2.8s-1.23-3.93-.34-5.79l44.09-92.27c1-2.09 3.1-3.41 5.41-3.41h45.67c2.06 0 3.98 1.06 5.08 2.8 1.1 1.75 1.22 3.93.33 5.79l-18.63 38.84 25.93-.04h.01c2.06 0 3.97 1.06 5.07 2.8s1.23 3.93.34 5.79l-66.93 139.88c-1.01 2.12-3.13 3.41-5.4 3.41zm-.66-107.01c3.3 0 5.98 2.66 6 5.96l.47 68.99 51.58-107.8-25.94.04h-.01c-2.06 0-3.98-1.06-5.08-2.8-1.1-1.75-1.23-3.93-.33-5.8l18.64-38.86h-32.36l-38.35 80.27z" fill="#08a88a"/></svg>