<svg enable-background="new 0 0 430 430" viewBox="0 0 430 430" xmlns="http://www.w3.org/2000/svg"><path d="m349.69 221h25.31c3.31 0 6-2.69 6-6s-2.69-6-6-6h-25.32l29.79-29.79c2.34-2.34 2.34-6.14 0-8.49-2.34-2.34-6.14-2.34-8.48 0l-38.27 38.28h-46.66l29.79-29.79c2.34-2.34 2.34-6.14 0-8.49-.71-.71-1.57-1.18-2.47-1.46-.07-.02-.13-.04-.2-.06-.23-.06-.46-.12-.69-.15-.26-.04-.52-.07-.79-.08-.04 0-.08-.01-.12-.01-.02 0-.03 0-.05 0h-42.13l32.67-32.67h54.13c3.31 0 6-2.69 6-6s-2.69-6-6-6h-42.13l18.28-18.28c2.34-2.34 2.34-6.14 0-8.49-2.34-2.34-6.14-2.34-8.48 0l-18.28 18.28v-42.11c0-3.31-2.69-6-6-6s-6 2.69-6 6v54.13l-32.67 32.67v-42.13c0-.04-.01-.08-.01-.12 0-.09-.01-.18-.01-.27-.01-.13-.02-.27-.04-.4-.13-1.33-.68-2.62-1.7-3.64-2.34-2.34-6.14-2.34-8.48 0l-29.79 29.79v-46.32l38.27-38.27c2.34-2.34 2.34-6.14 0-8.49-2.34-2.34-6.14-2.34-8.48 0l-29.79 29.79v-25.55c0-3.31-2.69-6-6-6s-6 2.69-6 6v25.55l-29.79-29.79c-2.34-2.34-6.14-2.34-8.48 0s-2.34 6.14 0 8.49l38.27 38.27v46.32l-29.79-29.79c-2.34-2.34-6.14-2.34-8.48 0-1.02 1.02-1.57 2.31-1.7 3.64-.02.13-.03.26-.04.4 0 .09-.01.18-.01.27 0 .04-.01.08-.01.12v42.13l-32.67-32.67v-54.13c0-3.31-2.69-6-6-6s-6 2.69-6 6v42.13l-18.28-18.28c-2.34-2.34-6.14-2.34-8.48 0s-2.34 6.14 0 8.49l18.28 18.28h-42.14c-3.31 0-6 2.69-6 6s2.69 6 6 6h54.13l32.67 32.67h-41.91-.22c-3.31 0-6 2.69-6 6 0 2.14 1.12 4.01 2.81 5.07l28.96 28.95h-46.73l-38.27-38.27c-2.34-2.34-6.14-2.34-8.48 0s-2.34 6.14 0 8.49l29.78 29.78h-25.54c-3.31 0-6 2.69-6 6s2.69 6 6 6h25.54l-29.79 29.79c-2.34 2.34-2.34 6.14 0 8.49 1.17 1.17 2.71 1.76 4.24 1.76s3.07-.59 4.24-1.76l38.28-38.28h46.73l-28.96 28.96c-1.68 1.06-2.81 2.93-2.81 5.07 0 3.31 2.69 6 6 6h42.13l-32.67 32.67h-54.13c-3.31 0-6 2.69-6 6s2.69 6 6 6h42.12l-18.27 18.27c-2.34 2.34-2.34 6.14 0 8.49 1.17 1.17 2.71 1.76 4.24 1.76 1.54 0 3.07-.59 4.24-1.76l18.28-18.28v42.13c0 3.31 2.69 6 6 6s6-2.69 6-6v-54.13l32.67-32.67v42.13c0 .38.04.75.11 1.1 0 .02 0 .04.01.06.07.36.18.71.31 1.04.01.03.02.05.03.08.14.34.31.67.51.97.01.02.02.04.04.06.44.66 1.01 1.23 1.68 1.68.02.02.05.03.07.04.31.2.63.37.97.51.03.01.06.02.08.03.33.13.68.24 1.04.31.02 0 .04.01.06.01.36.07.73.11 1.1.11.38 0 .75-.04 1.1-.11.02 0 .04-.01.06-.01.36-.07.71-.18 1.04-.31.03-.01.05-.02.08-.03.34-.14.67-.31.97-.51.02-.01.04-.03.07-.04.33-.22.64-.47.93-.76l29.79-29.78v46.51l-38.27 38.27c-2.34 2.34-2.34 6.14 0 8.49 1.17 1.17 2.71 1.76 4.24 1.76 1.54 0 3.07-.59 4.24-1.76l29.79-29.79v25.55c0 3.31 2.69 6 6 6s6-2.69 6-6v-25.54l29.79 29.79c1.17 1.17 2.71 1.76 4.24 1.76 1.54 0 3.07-.59 4.24-1.76 2.34-2.34 2.34-6.14 0-8.49l-38.27-38.27v-46.51l29.78 29.78c.28.28.59.53.92.76.02.02.05.03.07.04.31.2.63.37.97.51.03.01.06.02.08.03.33.13.68.24 1.04.31.02 0 .04.01.06.01.36.07.73.11 1.1.11.38 0 .75-.04 1.1-.11.02 0 .04-.01.06-.01.36-.07.71-.18 1.04-.31.03-.01.05-.02.08-.03.34-.14.67-.31.97-.51.02-.01.04-.03.07-.04.66-.44 1.23-1.01 1.68-1.68.01-.02.02-.04.04-.06.2-.31.37-.63.51-.97.01-.03.02-.05.03-.08.13-.33.24-.68.31-1.04 0-.02.01-.04.01-.06.07-.36.11-.73.11-1.1v-42.13l32.67 32.67v54.13c0 3.31 2.69 6 6 6s6-2.69 6-6v-42.13l18.28 18.28c1.17 1.17 2.71 1.76 4.24 1.76s3.07-.59 4.24-1.76c2.34-2.34 2.34-6.14 0-8.49l-18.27-18.27h42.12c3.31 0 6-2.69 6-6s-2.69-6-6-6h-54.12l-32.68-32.67h42.13.05.03c.03 0 .06-.01.09-.01.27-.01.54-.03.8-.08.23-.03.46-.09.68-.15l.21-.06c.9-.28 1.75-.75 2.46-1.46 2.34-2.34 2.34-6.14 0-8.49l-29.8-29.79h46.66l38.27 38.27c1.17 1.17 2.71 1.76 4.24 1.76 1.54 0 3.07-.59 4.24-1.76 2.34-2.34 2.34-6.14 0-8.49zm-52.57-40.03-28.03 28.03h-39.72l28.03-28.03zm-48.2 116.19-28.03-28.03v-39.64l28.03 28.03zm-76.55-48.13h-39.42l28.03-28.03h39.42zm76.55-76.54-28.03 28.03v-39.83l28.03-28.03zm-68.06-39.83 28.03 28.03v39.83l-28.03-28.03zm-47.91 48.31h39.42l28.03 28.03h-39.42zm75.94 48.51v39.64l-28.03 28.03v-39.64zm20.48-8.48h39.72l28.03 28.03h-39.72z" fill="#08a88a"/></svg>