<svg xmlns="http://www.w3.org/2000/svg" xmlns:xlink="http://www.w3.org/1999/xlink"><clipPath id="a"><path d="m0 0h500v500h-500z"/></clipPath><g clip-path="url(#a)" fill="none" stroke-linecap="round" stroke-linejoin="round"><path d="m284.33 289.594c-12.941 12.706-29.289 20.281-47.059 20.281-41.949 0-75.959-42.219-75.959-94.294s34.01-94.294 75.959-94.294c17.77 0 34.118 7.575 47.059 20.281" display="block" stroke="#08a88a" stroke-width="15.96"/><g display="block"><path d="m382.061 337.903c11.131 7.207 18.498 19.739 18.498 33.987 0 22.351-18.12 40.471-40.471 40.471s-40.471-18.12-40.471-40.471c0-14.248 7.367-26.78 18.498-33.987m43.946 0v-116.805c0-12.084-9.889-21.973-21.973-21.973s-21.973 9.889-21.973 21.973v116.805" stroke="#121331" stroke-width="12.04"/><g stroke="#08a88a"><path d="m360.088 309.875v61.052" stroke-width="14.98"/><path d="m360.135 370.917h-.094" stroke-width="29.96"/></g></g><path d="m89.728 145.404c0 13.32 10.797 24.117 24.117 24.117s24.117-10.797 24.117-24.117-10.797-24.117-24.117-24.117-24.117 10.797-24.117 24.117z" display="block" stroke="#08a88a" stroke-width="15.96"/></g></svg>