<svg enable-background="new 0 0 430 430" viewBox="0 0 430 430" xmlns="http://www.w3.org/2000/svg"><g fill="#08a88a"><path d="m324.19 315.16c-19.16 0-28.88-3.2-38.27-6.3-8.89-2.93-17.28-5.7-34.52-5.7s-25.63 2.77-34.52 5.7c-9.4 3.1-19.11 6.3-38.28 6.3s-28.88-3.2-38.28-6.3c-8.89-2.93-17.28-5.7-34.52-5.7-3.31 0-6-2.69-6-6s2.69-6 6-6c19.16 0 28.88 3.2 38.28 6.3 8.89 2.93 17.28 5.7 34.52 5.7s25.63-2.77 34.52-5.7c9.4-3.1 19.11-6.3 38.28-6.3 19.16 0 28.88 3.2 38.27 6.3 8.89 2.93 17.28 5.7 34.52 5.7 3.31 0 6 2.69 6 6s-2.69 6-6 6z"/><path d="m324.19 384.53c-19.16 0-28.88-3.2-38.27-6.3-8.89-2.93-17.28-5.7-34.52-5.7s-25.63 2.77-34.52 5.7c-9.4 3.1-19.11 6.3-38.28 6.3s-28.88-3.2-38.28-6.3c-8.89-2.93-17.28-5.7-34.52-5.7-3.31 0-6-2.69-6-6s2.69-6 6-6c19.16 0 28.88 3.2 38.28 6.3 8.89 2.93 17.28 5.7 34.52 5.7s25.63-2.77 34.52-5.7c9.4-3.1 19.11-6.3 38.28-6.3 19.16 0 28.88 3.2 38.27 6.3 8.89 2.93 17.28 5.7 34.52 5.7 3.31 0 6 2.69 6 6s-2.69 6-6 6z"/><path d="m324.19 349.84c-19.16 0-28.88-3.2-38.27-6.3-8.89-2.93-17.28-5.7-34.52-5.7s-25.63 2.77-34.52 5.7c-9.4 3.1-19.11 6.3-38.28 6.3s-28.88-3.2-38.28-6.3c-8.89-2.93-17.28-5.7-34.52-5.7-3.31 0-6-2.69-6-6s2.69-6 6-6c19.16 0 28.88 3.2 38.28 6.3 8.89 2.93 17.28 5.7 34.52 5.7s25.63-2.77 34.52-5.7c9.4-3.1 19.11-6.3 38.28-6.3 19.16 0 28.88 3.2 38.27 6.3 8.89 2.93 17.28 5.7 34.52 5.7 3.31 0 6 2.69 6 6s-2.69 6-6 6z"/></g><path d="m330.41 111.89c-19.49-40.42-60.7-66.42-105.69-66.42-40.58 0-78.6 21.38-100.23 56.07-11-1.27-22.19 2.35-30.64 10.08-8.85 8.1-13.59 19.54-13.1 31.23-19.75 12.62-31.87 34.55-31.87 58.15 0 38.01 30.92 68.93 68.93 68.93h181.17c45.29 0 82.14-36.85 82.14-82.14 0-33.11-20.28-63.29-50.71-75.9zm-31.43 146.03h-181.17c-31.39 0-56.93-25.54-56.93-56.93 0-20.58 11.16-39.62 29.13-49.69 2.17-1.22 3.36-3.64 3-6.11-1.34-9.12 2-18.36 8.95-24.72 6.75-6.18 15.56-8.54 24.17-6.49 8.11 1.93 15.2 7.11 19.46 14.2 3.76 6.25 4.86 13.42 3.1 20.18-.83 3.21 1.09 6.48 4.3 7.32 3.21.83 6.48-1.09 7.32-4.3 2.58-9.91 1.01-20.35-4.42-29.38-4.52-7.52-11.33-13.47-19.3-17.06 19.72-29.45 52.86-47.47 88.14-47.47 41.12 0 78.73 24.18 95.83 61.61 8.8 19.26 11.57 41.43 7.8 62.42-.59 3.26 1.58 6.38 4.84 6.97.36.06.72.1 1.07.1 2.85 0 5.38-2.04 5.9-4.94 3.26-18.17 2.1-37.14-3.18-54.77 19.66 12.75 32.13 34.94 32.13 58.93 0 38.67-31.47 70.13-70.14 70.13z" fill="#121331"/></svg>