<svg enable-background="new 0 0 430 430" viewBox="0 0 430 430" xmlns="http://www.w3.org/2000/svg">
    <g fill="#08a88a">
        <path
            d="m289.37 266.95c-.93 0-1.88-.22-2.76-.68-2.94-1.53-4.08-5.15-2.55-8.09 15.74-30.25 10.1-66.79-14.04-90.92-14.69-14.7-34.23-22.79-55.01-22.79s-40.32 8.09-55.01 22.79c-24.14 24.13-29.78 60.67-14.04 90.92 1.53 2.94.39 6.56-2.55 8.09s-6.56.39-8.09-2.55c-18.17-34.92-11.66-77.1 16.2-104.94 16.96-16.96 39.51-26.31 63.5-26.31s46.54 9.34 63.5 26.31c27.86 27.85 34.37 70.02 16.2 104.94-1.1 2.05-3.19 3.23-5.35 3.23z" />
        <path
            d="m371.02 228.27h-37.5c-3.31 0-6-2.69-6-6s2.69-6 6-6h37.5c3.31 0 6 2.69 6 6s-2.69 6-6 6z" />
        <path
            d="m298.8 144.47c-1.54 0-3.07-.59-4.24-1.76-2.34-2.34-2.34-6.14 0-8.49l26.52-26.52c2.34-2.34 6.14-2.34 8.48 0s2.34 6.14 0 8.49l-26.52 26.52c-1.16 1.17-2.7 1.76-4.24 1.76z" />
        <path
            d="m215 109.76c-3.31 0-6-2.69-6-6v-37.5c0-3.31 2.69-6 6-6s6 2.69 6 6v37.5c0 3.31-2.69 6-6 6z" />
        <path
            d="m131.2 144.47c-1.54 0-3.07-.59-4.24-1.76l-26.52-26.52c-2.34-2.34-2.34-6.14 0-8.49 2.34-2.34 6.14-2.34 8.48 0l26.52 26.52c2.34 2.34 2.34 6.14 0 8.49-1.17 1.17-2.71 1.76-4.24 1.76z" />
        <path
            d="m96.48 228.27h-37.5c-3.31 0-6-2.69-6-6s2.69-6 6-6h37.5c3.31 0 6 2.69 6 6s-2.68 6-6 6z" />
    </g>
    <path
        d="m401.81 319.95c-17.18 0-26.19-5.21-34.14-9.81-7.61-4.4-14.17-8.19-28.13-8.19s-20.52 3.8-28.13 8.19c-7.95 4.6-16.96 9.81-34.14 9.81s-26.19-5.21-34.14-9.81c-7.61-4.4-14.17-8.19-28.13-8.19s-20.53 3.8-28.13 8.19c-7.95 4.6-16.96 9.81-34.14 9.81s-26.19-5.21-34.14-9.81c-7.61-4.4-14.17-8.19-28.13-8.19s-20.53 3.8-28.13 8.19c-7.95 4.6-16.96 9.81-34.14 9.81-3.31 0-6-2.69-6-6s2.69-6 6-6c13.96 0 20.53-3.8 28.13-8.19 7.95-4.6 16.96-9.81 34.14-9.81s26.19 5.21 34.14 9.81c7.61 4.4 14.17 8.19 28.13 8.19s20.53-3.8 28.13-8.19c7.95-4.6 16.96-9.81 34.14-9.81s26.19 5.21 34.14 9.81c7.61 4.4 14.17 8.19 28.13 8.19s20.52-3.8 28.13-8.19c7.95-4.6 16.96-9.81 34.13-9.81 17.18 0 26.19 5.21 34.14 9.81 7.61 4.4 14.17 8.19 28.13 8.19 3.31 0 6 2.69 6 6s-2.68 6-5.99 6z"
        fill="#121331" />
    <path
        d="m401.81 369.75c-17.18 0-26.19-5.21-34.14-9.81-7.61-4.4-14.17-8.19-28.13-8.19s-20.52 3.8-28.13 8.19c-7.95 4.6-16.96 9.81-34.14 9.81s-26.19-5.21-34.14-9.81c-7.61-4.4-14.17-8.19-28.13-8.19s-20.53 3.8-28.13 8.19c-7.95 4.6-16.96 9.81-34.14 9.81s-26.19-5.21-34.14-9.81c-7.61-4.4-14.17-8.19-28.13-8.19s-20.53 3.8-28.13 8.19c-7.95 4.6-16.96 9.81-34.14 9.81-3.31 0-6-2.69-6-6s2.69-6 6-6c13.96 0 20.53-3.8 28.13-8.19 7.95-4.6 16.96-9.81 34.14-9.81s26.19 5.21 34.14 9.81c7.61 4.4 14.17 8.19 28.13 8.19s20.53-3.8 28.13-8.19c7.95-4.6 16.96-9.81 34.14-9.81s26.19 5.21 34.14 9.81c7.61 4.4 14.17 8.19 28.13 8.19s20.52-3.8 28.13-8.19c7.95-4.6 16.96-9.81 34.13-9.81 17.18 0 26.19 5.21 34.14 9.81 7.61 4.4 14.17 8.19 28.13 8.19 3.31 0 6 2.69 6 6s-2.68 6-5.99 6z"
        fill="#121331" />
    <path
        d="m401.81 266.95h-368.48c-3.31 0-6-2.69-6-6s2.69-6 6-6h368.47c3.31 0 6 2.69 6 6s-2.68 6-5.99 6z"
        fill="#121331" />
</svg>