<svg enable-background="new 0 0 430 430" viewBox="0 0 430 430"  xmlns="http://www.w3.org/2000/svg" xmlns:xlink="http://www.w3.org/1999/xlink">
    <clipPath id="a">
        <path d="m0 0h500v500h-500z" />
    </clipPath>
    <g clip-path="url(#a)" fill="none" stroke-linecap="round" stroke-linejoin="round"
        stroke-width="12.04">
        <path
            d="m368.812 253.274h37.255m-72.049-84 26.343-26.343m-110.343-8.451v-37.255m-84 72.049-26.343-26.343m-8.451 110.343h-37.255"
            display="block" stroke="#fff" />
        <path
            d="m436.37 344.952h-.02c-31.136 0-31.136-18-62.272-18s-31.136 18-62.272 18c-31.133 0-31.134-18-62.267-18-31.132 0-31.132 18-62.264 18-31.134 0-31.133-18-62.267-18-31.128 0-31.135 17.992-62.25 18m374.048 50s0 0 0 0c-31.133 0-31.134-18-62.267-18-31.132 0-31.132 18-62.264 18-31.134 0-31.133-18-62.267-18-31.135 0-31.135 18-62.27 18-31.136 0-31.136-18-62.272-18s-31.136 18-62.272 18"
            display="block" stroke="#b4b4b4" />
        <g display="block">
            <path
                d="m324.371 291.948c16.432-31.583 11.392-71.432-15.118-97.931-32.721-32.732-85.785-32.732-118.506 0-26.51 26.499-31.55 66.348-15.118 97.931"
                stroke="#fff" />
            <path d="m432.306 291.95h-363.972" stroke="#b4b4b4" />
        </g>
    </g>
</svg>