<svg enable-background="new 0 0 430 430" viewBox="0 0 430 430" xmlns="http://www.w3.org/2000/svg" xmlns:xlink="http://www.w3.org/1999/xlink"><clipPath id="a"><path d="m0 0h500v500h-500z"/></clipPath><g clip-path="url(#a)" fill="none" stroke-linecap="round" stroke-linejoin="round"><g display="block"><path d="m232.777 92.63-.028 217.096c0 2.78-1.606 5.348-4.159 6.448-20.709 8.926-34.855 30.181-33.186 54.521 1.864 27.187 23.884 49.217 51.07 51.093 32.208 2.222 59.026-23.246 59.026-54.979 0-22.69-13.713-42.175-33.302-50.627-2.559-1.104-4.176-3.671-4.176-6.458l.028-217.094c0-9.74-7.897-17.636-17.637-17.636s-17.636 7.896-17.636 17.636z" stroke="#121331" stroke-width="12.6"/><g stroke="#08a88a"><path d="m250.3 367.117.029-137.556" stroke-dasharray=".01 414" stroke-width="26.6"/><path d="m250.3 367.117.029-137.556" stroke-width="12.6"/></g></g><path d="m289.5 250.5h17m-17-35h17m-17-35h17m-17-35h17m-17-35h17" display="block" stroke="#08a88a" stroke-width="12.6"/></g></svg>