<svg enable-background="new 0 0 430 430" viewBox="0 0 430 430" xmlns="http://www.w3.org/2000/svg">
    <path
        d="m328.34 353.72c-13.8 0-26.86-5.29-36.77-14.89-2.38-2.31-2.44-6.1-.13-8.48s6.1-2.44 8.48-.13c7.66 7.42 17.75 11.51 28.41 11.51 22.53 0 40.86-18.33 40.86-40.86s-18.32-40.87-40.85-40.87h-206.82c-3.31 0-6-2.69-6-6s2.69-6 6-6h206.82c29.15 0 52.86 23.71 52.86 52.86s-23.72 52.86-52.86 52.86z"
        fill="#121331" />
    <path
        d="m261.62 182h-206.82c-3.31 0-6-2.69-6-6s2.69-6 6-6h206.82c22.53 0 40.86-18.33 40.86-40.86s-18.33-40.86-40.86-40.86c-10.67 0-20.76 4.09-28.41 11.51-2.38 2.31-6.18 2.25-8.48-.13s-2.25-6.18.13-8.48c9.91-9.6 22.97-14.89 36.77-14.89 29.15 0 52.86 23.71 52.86 52.86s-23.72 52.85-52.87 52.85z"
        fill="#121331" />
    <g fill="#08a88a">
        <path
            d="m268.3 221.28h-44.8c-3.31 0-6-2.69-6-6s2.69-6 6-6h44.8c3.31 0 6 2.69 6 6s-2.69 6-6 6z" />
        <path
            d="m161.83 221.28h-107.03c-3.31 0-6-2.69-6-6s2.69-6 6-6h107.03c3.31 0 6 2.69 6 6s-2.68 6-6 6z" />
        <path
            d="m100.88 301.34h-44.8c-3.31 0-6-2.69-6-6s2.69-6 6-6h44.8c3.31 0 6 2.69 6 6s-2.68 6-6 6z" />
        <path
            d="m269.58 301.34h-107.03c-3.31 0-6-2.69-6-6s2.69-6 6-6h107.03c3.31 0 6 2.69 6 6s-2.69 6-6 6z" />
    </g>
</svg>